<?xml version="1.0" standalone="no"?>
<!DOCTYPE svg PUBLIC "-//W3C//DTD SVG 20010904//EN"
 "http://www.w3.org/TR/2001/REC-SVG-20010904/DTD/svg10.dtd">
<svg version="1.0" xmlns="http://www.w3.org/2000/svg"
 width="3660.000000pt" height="4667.000000pt" viewBox="0 0 3660.000000 4667.000000"
 preserveAspectRatio="xMidYMid meet">
<metadata>
Created by potrace 1.16, written by Peter Selinger 2001-2019
</metadata>
<g transform="translate(0.000000,4667.000000) scale(0.100000,-0.100000)"
fill="#000000" stroke="none">
<path d="M11890 46664 c-279 -11 -608 -25 -692 -31 l-98 -6 0 -9628 0 -9629
-473 0 c-261 0 -534 -2 -608 -5 l-134 -6 -3470 4000 -3470 4000 -1472 1 -1473
0 0 -12660 0 -12660 1710 0 1710 0 2 9735 3 9735 3838 -4421 3837 -4421 0
-10312 0 -10313 143 -6 c78 -4 252 -12 387 -19 332 -16 1626 -16 1980 0 398
19 863 49 1190 77 2690 236 5314 912 7760 1998 722 320 1503 715 2185 1105
3026 1728 5648 4101 7640 6917 2068 2923 3417 6252 3955 9760 121 796 194
1542 242 2480 17 334 17 1624 0 1965 -46 922 -119 1665 -243 2480 -827 5427
-3616 10405 -7875 14056 -3749 3214 -8410 5200 -13364 5693 -448 45 -799 71
-1385 102 -186 10 -1635 20 -1825 13z m1530 -594 c2845 -101 5527 -663 8120
-1702 977 -392 2004 -889 2925 -1416 4151 -2374 7473 -5964 9463 -10224 1170
-2503 1858 -5192 2036 -7953 35 -528 41 -745 41 -1435 0 -690 -7 -932 -40
-1440 -156 -2366 -668 -4631 -1543 -6815 -1418 -3543 -3752 -6706 -6762 -9166
-2206 -1803 -4745 -3201 -7450 -4102 -2534 -844 -5173 -1255 -7870 -1223 -300
3 -569 9 -597 12 l-53 7 0 9684 c0 5326 3 9682 8 9679 4 -2 1946 -2239 4317
-4970 l4310 -4965 1563 -1 1562 0 0 12660 0 12660 -1725 0 -1725 0 0 -3969 0
-3969 -412 -6 c-227 -3 -1923 -12 -3768 -21 -1845 -8 -3529 -17 -3742 -20
l-388 -5 0 9350 0 9349 148 4 c384 7 1327 6 1582 -3z m6580 -26272 l0 -4083
-24 25 c-13 14 -1579 1818 -3481 4010 -1903 2192 -3488 4018 -3523 4058 l-64
72 3546 0 3546 0 0 -4082z"/>
</g>
</svg>
