<?xml version="1.0" encoding="utf-8"?>
<!-- Generator: Adobe Illustrator 25.1.0, SVG Export Plug-In . SVG Version: 6.00 Build 0)  -->
<svg version="1.1" id="Layer_1" xmlns="http://www.w3.org/2000/svg" xmlns:xlink="http://www.w3.org/1999/xlink" x="0px" y="0px"
	 viewBox="0 0 3660 4667" style="enable-background:new 0 0 3660 4667;" xml:space="preserve">
<style type="text/css">
	.st0{fill:#FFFFFF;}
</style>
<g transform="translate(0.000000,4667.000000) scale(0.100000,-0.100000)">
</g>
<g transform="translate(0.000000,4667.000000) scale(0.100000,-0.100000)">
	<path class="st0" d="M11891.7,46581c-279-11-608.1-24.9-692.1-30.9l-98-6v-9599v-9600h-473.1c-261,0-534.1-2-608.1-5l-134-6
		l-3470.5,3988l-3470.5,3988l-1472.2,1H0V22689.1V10067.2h1710.2h1710.2l2,9705.7l3,9705.7L7264,25070.9l3837.5-4407.7v-10281V100.2
		l143-6c78-4,252-12,387.1-18.9c332-16,1626.2-16,1980.3,0c398.1,18.9,863.1,48.9,1190.2,76.8
		c2690.4,235.3,5314.8,909.3,7761.1,1992c722.1,319,1503.2,712.8,2185.3,1101.7c3026.4,1722.8,5648.8,4088.7,7641.1,6896.2
		c2068.3,2914.2,3417.5,6233.2,3955.6,9730.6c121,793.6,194,1537.4,242,2472.5c17,333,17,1619.1,0,1959.1
		c-46,919.2-119,1660-243,2472.5c-827.1,5410.7-3616.5,10373.7-7876.1,14013.7c-3749.5,3204.3-8411.2,5184.4-13365.9,5675.9
		c-448.1,44.9-799.1,70.8-1385.2,101.7C13530.9,46578,12081.7,46588,11891.7,46581z M13421.9,45988.8
		c2845.4-100.7,5527.8-661,8121.2-1696.9c977.1-390.8,2004.3-886.3,2925.4-1411.7c4151.6-2366.9,7474.1-5946.1,9464.4-10193.2
		c1170.2-2495.5,1858.3-5176.4,2036.3-7929.1c35-526.4,41-742.8,41-1430.7c0-687.9-7-929.2-40-1435.7
		c-156-2358.9-668.1-4617.1-1543.2-6794.5c-1418.2-3532.3-3752.5-6685.8-6763-9138.4c-2206.3-1797.6-4745.7-3191.4-7451.1-4089.7
		c-2534.4-841.5-5173.7-1251.2-7871.1-1219.3c-300,3-569.1,9-597.1,12l-53,7v9654.9c0,5310,3,9652.9,8,9649.9
		c4-2,1946.3-2232.3,4317.6-4955.1l4310.6-4950.1l1563.2-1h1562.2v12621.9V35311h-1725.2h-1725.2v-3957.1v-3957.1l-412.1-6
		c-227-3-1923.3-12-3768.5-20.9c-1845.3-8-3529.5-16.9-3742.5-19.9l-388.1-5v9321.9v9320.9l148,4
		C12223.8,45998.8,13166.9,45997.8,13421.9,45988.8z M20002.9,19795.8v-4070.7l-24,24.9c-13,14-1579.2,1812.5-3481.5,3997.9
		c-1903.3,2185.4-3488.5,4005.9-3523.5,4045.8l-64,71.8h3546.5h3546.5V19795.8z"/>
</g>
</svg>
